HIERARCHY
ROOT Hips
{
 OFFSET 0.000000 0.000000 0.000000
 CHANNELS 6 Xposition Yposition Zposition Yrotation Xrotation Zrotation
 JOINT Chest
 {
  OFFSET 0.000000 9.585900 0.002600
  CHANNELS 3 Yrotation Xrotation Zrotation
  JOINT Chest2
  {
   OFFSET 0.000000 9.601200 -0.005300
   CHANNELS 3 Yrotation Xrotation Zrotation
   JOINT Chest3
   {
    OFFSET 0.000000 9.561800 0.000000
    CHANNELS 3 Yrotation Xrotation Zrotation
    JOINT Chest4
    {
     OFFSET 0.000000 9.552100 0.000000
     CHANNELS 3 Yrotation Xrotation Zrotation
     JOINT Neck
     {
      OFFSET 0.000000 14.453000 0.000000
      CHANNELS 3 Yrotation Xrotation Zrotation
      JOINT Head
      {
       OFFSET 0.000000 8.936500 -0.011300
       CHANNELS 3 Yrotation Xrotation Zrotation
       End Site
       {
        OFFSET 0.000000 17.073600 -0.006000
       }
      }
     }
     JOINT RightCollar
     {
      OFFSET -2.921100 9.558500 0.000000
      CHANNELS 3 Yrotation Xrotation Zrotation
      JOINT RightShoulder
      {
       OFFSET -13.519700 0.000000 0.000000
       CHANNELS 3 Yrotation Xrotation Zrotation
       JOINT RightElbow
       {
        OFFSET 0.000000 -29.696600 0.000000
        CHANNELS 3 Yrotation Xrotation Zrotation
        JOINT RightWrist
        {
         OFFSET 0.000000 -24.004700 0.000000
         CHANNELS 3 Yrotation Xrotation Zrotation
         End Site
         {
          OFFSET 0.000000 -17.728500 0.000000
         }
        }
       }
      }
     }
     JOINT LeftCollar
     {
      OFFSET 2.921100 9.558500 0.000000
      CHANNELS 3 Yrotation Xrotation Zrotation
      JOINT LeftShoulder
      {
       OFFSET 13.519700 0.000000 0.000000
       CHANNELS 3 Yrotation Xrotation Zrotation
       JOINT LeftElbow
       {
        OFFSET 0.000000 -29.696600 0.000000
        CHANNELS 3 Yrotation Xrotation Zrotation
        JOINT LeftWrist
        {
         OFFSET 0.000000 -24.004700 0.000000
         CHANNELS 3 Yrotation Xrotation Zrotation
         End Site
         {
          OFFSET 0.000000 -17.728500 0.000000
         }
        }
       }
      }
     }
    }
   }
  }
 }
 JOINT RightHip
 {
  OFFSET -7.771700 -0.012900 -0.001300
  CHANNELS 3 Yrotation Xrotation Zrotation
  JOINT RightKnee
  {
   OFFSET 0.000000 -40.869800 0.001200
   CHANNELS 3 Yrotation Xrotation Zrotation
   JOINT RightAnkle
   {
    OFFSET 0.000000 -39.717900 0.002100
    CHANNELS 3 Yrotation Xrotation Zrotation
    JOINT RightToe
    {
     OFFSET 0.000000 -4.965400 11.033500
     CHANNELS 3 Yrotation Xrotation Zrotation
     End Site
     {
      OFFSET 0.000000 -1.423100 5.872300
     }
    }
   }
  }
 }
 JOINT LeftHip
 {
  OFFSET 7.771700 -0.012900 -0.001300
  CHANNELS 3 Yrotation Xrotation Zrotation
  JOINT LeftKnee
  {
   OFFSET 0.000000 -40.869800 0.001200
   CHANNELS 3 Yrotation Xrotation Zrotation
   JOINT LeftAnkle
   {
    OFFSET 0.000000 -39.717900 0.002100
    CHANNELS 3 Yrotation Xrotation Zrotation
    JOINT LeftToe
    {
     OFFSET 0.000000 -4.965400 11.033500
     CHANNELS 3 Yrotation Xrotation Zrotation
     End Site
     {
      OFFSET 0.000000 -1.423100 5.872300
     }
    }
   }
  }
 }
}
MOTION
Frames: 11
Frame Time: 0.008333
0.000000 85.388000 0.000000 0.000000 -5.767877 0.000000 0.000000 11.653817 0.000000 0.000000 -5.885947 0.000000 0.000000 -0.000000 0.000000 0.000000 -0.000000 0.000000 0.000000 12.528835 0.000000 0.000000 0.711642 0.000000 0.000000 -0.000000 0.000000 0.000000 0.000000 -90.000000 0.000000 -2.309062 0.000000 0.000000 2.309062 0.000000 0.000000 -0.000000 0.000000 0.000000 -0.000000 90.000000 0.000000 -2.309062 0.000000 0.000000 2.309062 0.000000 0.000000 8.520406 0.000000 0.000000 1.905762 0.000000 -0.000000 -4.658285 0.000000 0.000000 -0.000000 0.000000 0.000000 8.520406 0.000000 0.000000 1.905762 0.000000 -0.000000 -4.658285 0.000000 0.000000 -0.000000 0.000000
-4.599171 55.373357 30.088779 178.043243 -29.575366 -11.546123 0.791292 12.397456 6.416154 0.247808 7.095334 2.206326 0.391723 8.840468 2.770823 0.256549 7.078826 2.205865 1.235743 15.222627 1.903812 0.851662 -9.750890 1.708499 0.874756 3.473987 -2.322298 -15.315271 -8.372196 6.025277 24.908933 -77.355778 -12.564456 10.904341 -3.761756 -6.998474 -9.340730 2.076101 -3.692713 3.165316 -3.561707 -1.628875 -80.142670 -73.759114 85.030057 11.113775 -14.168220 -1.144926 -19.407757 -35.715169 9.095446 33.042747 85.343788 29.407402 1.823404 -18.061388 0.256211 -0.826666 1.693556 -0.370319 -16.408777 -48.454145 19.409709 167.324388 78.825539 163.300379 -1.027981 -15.799657 0.943094 -1.240667 -2.738998 -0.575518
-4.599465 55.372145 30.100749 178.023182 -29.595623 -11.556669 0.819303 12.386379 6.435125 0.269454 7.099438 2.212779 0.388886 8.864807 2.777840 0.264916 7.091699 2.211075 1.276852 15.350820 2.032123 0.866585 -9.613501 1.835158 0.860911 3.481593 -2.325002 -15.318584 -8.293547 6.060532 21.895323 -77.367117 -9.720258 10.626503 -3.904442 -7.691038 -9.326747 2.067306 -3.700685 3.080595 -3.655111 -1.574358 -79.998148 -73.726526 84.874904 11.112281 -14.161025 -1.282458 -19.370939 -35.696930 9.121116 32.921148 85.325811 29.279566 1.815468 -18.053981 0.282631 -0.838615 1.706733 -0.377736 -16.393713 -48.450649 19.394352 167.199233 78.818206 163.203920 -0.989871 -15.773647 0.942567 -1.273129 -2.757146 -0.593391
-4.605127 55.370034 30.113147 178.044631 -29.617024 -11.559792 0.800837 12.382240 6.424215 0.280725 7.108948 2.218233 0.395047 8.884098 2.783688 0.280767 7.108907 2.218266 1.321094 15.481871 2.155783 0.894170 -9.467668 1.956317 0.832644 3.470474 -2.330843 -15.303743 -8.205568 6.096086 19.814405 -77.348409 -7.805473 10.437171 -4.004397 -8.352813 -9.326926 2.056034 -3.705807 3.015972 -3.736331 -1.524886 -79.867430 -73.694753 84.734123 11.097637 -14.139962 -1.399287 -19.319683 -35.698234 9.098164 32.689820 85.340610 29.076354 1.773953 -18.014073 0.296652 -0.798691 1.677075 -0.363224 -16.385182 -48.442833 19.331835 167.106722 78.826710 163.154515 -1.000889 -15.756733 0.919100 -1.238500 -2.755028 -0.590239
-4.609168 55.370469 30.122516 178.047287 -29.676271 -11.568266 0.809534 12.425783 6.430106 0.284833 7.110844 2.220487 0.401084 8.895892 2.789701 0.286230 7.121905 2.222618 1.388044 15.622749 2.277032 0.937806 -9.315830 2.070283 0.827227 3.487785 -2.335014 -15.306672 -8.148777 6.144637 18.611042 -77.312579 -6.746680 10.332142 -4.072371 -8.963174 -9.329914 2.047226 -3.710367 2.976216 -3.801274 -1.478972 -79.687145 -73.694580 84.559448 11.040311 -14.116324 -1.508116 -19.268354 -35.654866 9.079129 32.535492 85.343437 28.932838 1.780494 -17.979285 0.296341 -0.796749 1.655392 -0.349874 -16.361925 -48.396995 19.290324 167.002835 78.823956 163.075551 -0.998288 -15.729345 0.898525 -1.245962 -2.776576 -0.572720
-4.611868 55.372151 30.130614 178.061171 -29.750379 -11.596525 0.814524 12.485344 6.450395 0.286910 7.121725 2.222624 0.400326 8.899324 2.796044 0.288687 7.135354 2.226912 1.469444 15.767984 2.393052 0.997944 -9.158812 2.175672 0.825254 3.500176 -2.339185 -15.323566 -8.100191 6.195496 18.044945 -77.270057 -6.295129 10.297250 -4.128574 -9.502098 -9.330663 2.034747 -3.717984 2.943735 -3.849542 -1.435643 -79.577223 -73.638145 84.442232 11.034425 -14.072710 -1.578747 -19.252761 -35.574033 9.079307 32.436305 85.325655 28.830290 1.760197 -17.969138 0.306372 -0.803580 1.657834 -0.354711 -16.357492 -48.323156 19.273202 166.920666 78.827281 163.013732 -1.020375 -15.721455 0.883540 -1.221919 -2.776330 -0.562920
-4.616174 55.370667 30.143588 178.050651 -29.795226 -11.611180 0.826538 12.496729 6.466155 0.289201 7.135600 2.226926 0.397370 8.915241 2.798403 0.289321 7.148763 2.230861 1.562500 15.919116 2.504406 1.071646 -8.994957 2.273805 0.823946 3.511842 -2.340724 -15.352896 -8.061283 6.246262 17.817827 -77.230046 -6.153877 10.305220 -4.188773 -9.967672 -9.315935 2.032997 -3.721102 2.917689 -3.879581 -1.419309 -79.533660 -73.574509 84.388433 11.033495 -14.027496 -1.632705 -19.207359 -35.539503 9.098015 32.222880 85.320816 28.607580 1.744201 -17.941905 0.338433 -0.814372 1.648832 -0.358115 -16.352052 -48.294864 19.259634 166.772979 78.818062 162.886293 -1.010309 -15.686029 0.872642 -1.229489 -2.800112 -0.565817
-4.623187 55.370788 30.152269 178.058125 -29.862659 -11.625417 0.823812 12.534538 6.470067 0.284280 7.138439 2.228041 0.403838 8.941033 2.801326 0.285063 7.160591 2.234699 1.665768 16.077139 2.611721 1.157185 -8.823120 2.365757 0.806820 3.539671 -2.328094 -15.372168 -8.050587 6.287586 17.684117 -77.196464 -6.083584 10.321598 -4.259764 -10.371483 -9.306261 2.039020 -3.719642 2.899966 -3.912374 -1.405673 -79.460156 -73.546277 84.314751 11.017739 -13.983899 -1.670126 -19.136570 -35.488765 9.067394 31.999044 85.324316 28.410930 1.733058 -17.908932 0.349978 -0.800116 1.626527 -0.352051 -16.340729 -48.239131 19.228659 166.665086 78.811365 162.789555 -1.009525 -15.656711 0.866922 -1.227011 -2.819563 -0.568228
-4.631390 55.370393 30.160969 178.055865 -29.926107 -11.635710 0.828228 12.563481 6.470855 0.289231 7.161971 2.233950 0.406419 8.950444 2.803527 0.280766 7.165808 2.236767 1.770025 16.243868 2.717974 1.253740 -8.644007 2.450829 0.808779 3.540506 -2.327341 -15.422162 -8.016821 6.331084 17.512229 -77.167777 -5.956536 10.316004 -4.341639 -10.728057 -9.337316 2.060878 -3.701241 2.896072 -3.964185 -1.389093 -79.306654 -73.550778 84.184412 11.004173 -13.945417 -1.687119 -19.092624 -35.438488 9.047462 31.845966 85.323308 28.261136 1.754511 -17.884411 0.353177 -0.810773 1.614229 -0.348338 -16.328547 -48.189937 19.204202 166.564883 78.800597 162.692477 -0.998477 -15.623986 0.872867 -1.236515 -2.845044 -0.579251
-4.641995 55.367457 30.172564 178.065796 -29.958343 -11.645396 0.812488 12.568820 6.462816 0.287651 7.173772 2.237602 0.404557 8.965023 2.808141 0.287683 7.173861 2.237554 1.878806 16.414172 2.818811 1.360420 -8.458269 2.528930 0.784912 3.554084 -2.319974 -15.434326 -8.015083 6.352971 17.459894 -77.157112 -5.907049 10.226754 -4.405696 -11.098414 -9.353929 2.074573 -3.692452 2.884327 -4.000540 -1.363038 -79.151948 -73.569030 84.050405 10.993072 -13.912677 -1.681772 -19.070279 -35.419335 9.029878 31.732569 85.323038 28.151430 1.766562 -17.863178 0.361853 -0.826345 1.605193 -0.349419 -16.335847 -48.170959 19.182009 166.469589 78.797296 162.604036 -0.998885 -15.598714 0.861625 -1.230263 -2.855169 -0.570553
-4.652329 55.366317 30.180431 178.086644 -30.007262 -11.667093 0.771252 12.564509 6.443515 0.303977 7.214283 2.253432 0.401925 8.978509 2.812224 0.285400 7.184601 2.240899 1.998287 16.588184 2.911848 1.476185 -8.266019 2.599081 0.771577 3.573254 -2.316091 -15.475517 -8.022503 6.374676 17.399970 -77.146560 -5.813614 10.104800 -4.478667 -11.484599 -9.362993 2.089163 -3.686244 2.872047 -4.030963 -1.342248 -79.033366 -73.592543 83.964779 10.976890 -13.872161 -1.654437 -19.056157 -35.373016 9.010688 31.666043 85.315659 28.095128 1.746135 -17.850210 0.366903 -0.816634 1.602259 -0.346315 -16.351730 -48.127551 19.164378 166.424480 78.796483 162.561574 -0.992811 -15.580428 0.852374 -1.230852 -2.863612 -0.559327
